<?xml version="1.0" encoding="UTF-8"?><svg xmlns="http://www.w3.org/2000/svg" viewBox="0 0 2894.27 2881.8"><defs><style>.d{fill:#fff;}.e{stroke-width:30px;}.e,.f{stroke:#000;}.e,.f,.g{fill:none;stroke-miterlimit:10;}.h{fill:#eda84e;}.f,.g{stroke-width:40px;}.g{stroke:#eda84e;}</style></defs><g id="a"/><g id="b"><g id="c"><rect y="915.5" width="1966.3" height="1966.3"/><polygon class="d" points="1788.25 1085.74 178.05 1085.74 178.05 1571.03 294.27 1571.03 294.27 2367.84 178.05 2367.84 178.05 2711.56 445.61 2711.56 445.61 2471.35 1131.09 2471.35 1131.09 2579.72 1788.25 2579.72 1788.25 1085.74"/><rect x="1449.11" y="1214.21" width="223.42" height="223.42"/><rect x="1449.11" y="1545.01" width="223.42" height="223.42"/><rect x="1005.31" y="1946.76" width="74.03" height="223.42"/><rect x="1128.56" y="1946.76" width="74.03" height="223.42"/><rect x="1251.82" y="1946.76" width="74.03" height="223.42"/><rect x="1375.08" y="1946.76" width="74.03" height="223.42"/><rect x="449.33" y="2018.97" width="223.42" height="223.42"/><polyline class="f" points="1560.82 1325.92 856.63 1325.92 856.63 1524.03 856.63 1557.59 665.87 1557.59"/><polyline class="f" points="1560.82 1656.72 987.78 1656.72 987.78 1809.16 665.87 1809.16"/><polyline class="f" points="276.49 1029.93 276.49 1270.11 561.03 1270.11"/><polyline class="f" points="561.03 2130.68 561.03 2369.52 1463.31 2369.52"/><circle class="e" cx="1560.82" cy="2369.52" r="104.84"/><circle class="e" cx="561.03" cy="1809.16" r="104.84"/><circle class="e" cx="561.03" cy="1557.59" r="104.84"/><circle class="e" cx="665.87" cy="1270.11" r="104.84"/><polygon class="h" points="1524.27 1537.48 1966.79 1248.25 1966.79 1007.52 1524.27 1537.48"/><polygon class="h" points="2429.75 644.07 2894.27 148.9 2287.3 220.12 1924.61 728.49 2202.14 740.19 1966.79 1007.52 1966.79 1248.25 2748.72 698.58 2429.75 644.07"/><polygon class="h" points="1230.88 20.91 1501.71 92.78 1593.31 437.18 1461.72 402.25 1592.08 791.52 1280.83 268.73 1420.1 303.17 1230.88 20.91"/><line class="g" x1="1987.12" y1="348.33" x2="2031.22" y2="2.53"/><line class="g" x1="864.52" y1="747.16" x2="807.95" y2="669.02"/><line class="g" x1="966.53" y1="228.4" x2="848.85" y2="20.91"/><line class="g" x1="2585.45" y1="1189.26" x2="2858.69" y2="1239.16"/><line class="g" x1="2491.04" y1="105.54" x2="2549.88" y2="62.19"/><line class="g" x1="1709.75" y1="237.37" x2="1709.75" y2="175.43"/><line class="g" x1="2806.02" y1="501.94" x2="2858.69" y2="469.35"/><line class="g" x1="2202.14" y1="1605.96" x2="2251.69" y2="1662.43"/></g></g></svg>