<?xml version="1.0" encoding="UTF-8"?><svg xmlns="http://www.w3.org/2000/svg" xmlns:xlink="http://www.w3.org/1999/xlink" viewBox="0 0 1625.81 2905.55"><defs><style>.h{fill:#fff;}.i{fill:#4c84f5;}.j,.k{stroke-width:30px;}.j,.k,.l{fill:none;stroke-miterlimit:10;}.j,.l{stroke:#000;}.m{fill:#3d866d;}.n{fill:#d6594b;}.o{fill:#ced2d9;}.p{clip-path:url(#f);}.k{stroke:#ced2d9;}.l{stroke-width:45px;}</style><clipPath id="f"><polygon class="i" points="1256.7 120.77 1063.26 120.77 1063.26 239.9 1078.12 239.9 1063.26 239.9 1063.26 253.7 1063.26 239.9 543.25 239.9 543.25 247.86 543.25 239.9 531.04 239.9 543.25 239.9 543.25 120.77 350.92 120.77 184.57 303.45 184.57 304.28 184.57 2627.39 352.6 2812.65 803.81 2812.65 1255.01 2812.65 1423.04 2627.39 1423.04 304.28 1423.04 303.45 1256.7 120.77"/></clipPath></defs><g id="a"/><g id="b"><g id="c"><g id="d"><polygon points="1316 19.98 803.81 19.98 291.61 19.98 103.48 214.82 103.48 215.7 103.48 2693.43 293.52 2891.02 803.81 2891.02 1314.09 2891.02 1504.13 2693.43 1504.13 215.7 1504.13 214.82 1316 19.98"/></g><g id="e"><polygon class="i" points="1256.7 120.77 1063.26 120.77 1063.26 239.9 1078.12 239.9 1063.26 239.9 1063.26 253.7 1063.26 239.9 543.25 239.9 543.25 247.86 543.25 239.9 531.04 239.9 543.25 239.9 543.25 120.77 350.92 120.77 184.57 303.45 184.57 304.28 184.57 2627.39 352.6 2812.65 803.81 2812.65 1255.01 2812.65 1423.04 2627.39 1423.04 304.28 1423.04 303.45 1256.7 120.77"/><g class="p"><path class="o" d="M74.32,1632.77l197.42-139.35,44.13-174.19v-257.81l181.16-102.19,239.23-41.81,16.26-85.94-11.61-192.77,810.58-11.61s74.32,1695.48,74.32,1688.52-510.97-34.84-510.97-34.84l-53.42-329.81-148.65-67.35-112.49-95.23-105.83-155.61-90.58,371.61,58.06,167.23-27.87,125.42-580.65,18.6,20.9-682.86Z"/><polygon class="m" points="355.35 2292.39 413.42 2292.39 413.42 1372.65 302.34 1372.65 315.87 1319.23 315.87 1061.42 497.03 959.23 736.26 917.42 752.52 831.48 743.23 713.03 743.23 659.61 1114.84 650.32 1235.61 680.52 1500.6 650.32 1500.6 1416.77 1186.84 1416.77 1186.84 2097.29 1040.52 1818.58 1040.52 1700.13 1100.9 1700.13 1100.9 1462.48 1100.9 1347.1 987.1 1347.1 987.1 1455.5 839.61 1455.5 839.61 1282.06 527.23 1282.06 527.23 1572.39 650.32 1614.19 527.23 2009.03 610.84 2252.9 459.87 2382.97 355.35 2292.39"/><rect class="h" width="1525.94" height="713.03"/><rect class="h" x="83.61" y="2192.52" width="1525.94" height="713.03"/><polyline class="k" points="745.51 742.14 752.52 831.48 736.26 917.42 497.03 959.23 315.87 1061.42 315.87 1319.23 271.74 1493.42 224.39 1526.85"/><rect class="o" x="324.39" y="316.65" width="944.52" height="120.77"/><rect class="o" x="324.39" y="493.94" width="944.52" height="120.77"/><rect class="o" x="324.39" y="2283.87" width="944.52" height="120.77"/><rect class="o" x="324.39" y="2475.87" width="321.68" height="120.77"/><rect class="o" x="757.01" y="2475.87" width="222.7" height="120.77"/><rect class="o" x="1090.65" y="2475.87" width="175.16" height="120.77"/><line class="j" x1="184.57" y1="2192.52" x2="1451.61" y2="2192.52"/><line class="j" x1="184" y1="713.03" x2="1443.63" y2="713.03"/><g id="g"><polyline class="l" points="590.34 1103.23 991.74 1103.23 991.74 1558.45 1291.35 1878.97"/><circle class="n" cx="1291.35" cy="1878.97" r="69.68"/><circle class="h" cx="590.34" cy="1103.23" r="69.68"/></g></g></g></g></g></svg>