<?xml version="1.0" encoding="UTF-8"?><svg xmlns="http://www.w3.org/2000/svg" viewBox="0 0 3825.29 1577.86"><defs><style>.d{fill:#fff;}.e{stroke:#846deb;stroke-width:30px;}.e,.f,.g{fill:none;stroke-miterlimit:10;}.h{fill:#4c84f5;}.i{fill:#846deb;}.j{fill:#eda84e;}.k{fill:#d6594b;}.f{stroke-width:20px;}.f,.g{stroke:#000;}.g{stroke-width:40px;}.l{fill:#a1a7b3;}</style></defs><g id="a"/><g id="b"><g id="c"><g><polygon class="l" points="3019.67 1343.81 3024.14 1358.67 3038.52 1358.67 3019.67 1343.81"/><polygon class="l" points="937.99 1180.77 736.02 436.05 275.26 436.05 263.32 826.36 0 951.04 124.29 1431.71 193 1431.71 170.42 1344.71 251.1 1230.77 405.28 1230.77 545.94 1344.71 568.99 1431.71 1006.05 1431.71 986.24 1358.67 1049.64 1358.67 1045.87 1344.82 1125.12 1230.88 1280.39 1230.88 1421.42 1344.15 1425.45 1358.67 2648.1 1358.67 2643.85 1344.26 2720.04 1231 2876.62 1231 3019.67 1343.81 3038.52 1358.67 3143.09 1358.67 3089.35 1180.77 937.99 1180.77"/><polygon points="400.31 1273.59 278.76 1273.59 215.92 1362.44 248.71 1488.47 358.29 1577.86 480.37 1577.86 543.07 1488.47 509.75 1362.44 400.31 1273.59"/><polygon class="d" points="388.92 1356.06 333.41 1356.06 304.76 1396.66 319.78 1454.16 369.75 1494.87 425.38 1494.87 454 1454.16 438.87 1396.66 388.92 1356.06"/><polygon points="1275.06 1273.59 1153.51 1273.59 1091.78 1362.44 1126.15 1488.47 1236.86 1577.86 1358.94 1577.86 1420.51 1488.47 1385.61 1362.44 1275.06 1273.59"/><polygon points="2871.44 1273.59 2749.89 1273.59 2690.2 1362.44 2727.46 1488.47 2840.21 1577.86 2962.29 1577.86 3021.81 1488.47 2984.03 1362.44 2871.44 1273.59"/><polygon class="h" points="678.58 513.1 401.3 513.1 406.49 818.38 761.02 818.38 678.58 513.1"/><polyline class="f" points="358.01 845.66 421.67 1180.77 505.06 1250.75"/><line class="f" x1="796.5" y1="845.66" x2="906.07" y2="1250.75"/><line class="g" x1="674.38" y1="975.71" x2="744.58" y2="975.71"/><polygon class="j" points="121.95 1157.93 53.5 1157.93 21.42 1033.89 89.76 1033.89 121.95 1157.93"/><polygon class="k" points="3110.7 1251.45 3076.42 1251.45 3055.11 1180.77 3089.35 1180.77 3110.7 1251.45"/><line class="f" x1="597.79" y1="1358.67" x2="906.94" y2="1358.67"/><polyline class="f" points="406.49 818.38 752.36 818.38 678.58 513.1"/><polygon class="i" points="2970.34 1180.77 1001.46 1180.77 684.24 15 2620.14 15 2970.34 1180.77"/><line class="f" x1="1001.46" y1="1180.77" x2="2970.34" y2="1180.77"/><polygon class="d" points="1264.7 1356.06 1209.19 1356.06 1181.05 1396.66 1196.79 1454.16 1247.28 1494.87 1302.9 1494.87 1331.01 1454.16 1315.16 1396.66 1264.7 1356.06"/><polygon class="d" points="2862.97 1356.06 2807.46 1356.06 2780.25 1396.66 2797.31 1454.16 2848.73 1494.87 2904.35 1494.87 2931.53 1454.16 2914.36 1396.66 2862.97 1356.06"/><line class="f" x1="124.29" y1="1431.71" x2="193" y2="1431.71"/><line class="f" x1="568.99" y1="1431.71" x2="1006.05" y2="1431.71"/><line class="f" x1="986.24" y1="1358.67" x2="1049.64" y2="1358.67"/><line class="f" x1="1425.45" y1="1358.67" x2="2648.1" y2="1358.67"/><line class="f" x1="3024.14" y1="1358.67" x2="3143.09" y2="1358.67"/></g><polygon class="i" points="3346.4 123.24 3408.55 260.9 2694.36 260.9 2653.01 123.24 3346.4 123.24"/><polygon class="i" points="2931.53 358.07 2993.68 495.73 2763.41 495.73 2722.05 358.07 2931.53 358.07"/><polygon class="i" points="3597.24 624.56 3659.39 762.22 2831.58 761.34 2790.23 623.68 3597.24 624.56"/><polygon class="i" points="3220.98 874.91 3283.13 1012.57 2910.55 1012.57 2869.19 874.91 3220.98 874.91"/><line class="e" x1="2993.68" y1="15" x2="3603.65" y2="15"/><line class="e" x1="3419.22" y1="387.17" x2="3812.47" y2="387.17"/><line class="e" x1="3207.29" y1="1114.13" x2="3704.08" y2="1114.13"/><line class="e" x1="3629.76" y1="863.3" x2="3825.29" y2="863.3"/><line class="e" x1="3109.52" y1="522.61" x2="3305.05" y2="522.61"/></g></g></svg>